<?xml version="1.0" encoding="utf-8"?>
<!-- Generator: Adobe Illustrator 25.2.3, SVG Export Plug-In . SVG Version: 6.00 Build 0)  -->
<svg version="1.1" id="Слой_1" xmlns="http://www.w3.org/2000/svg" xmlns:xlink="http://www.w3.org/1999/xlink" x="0px" y="0px"
	 viewBox="0 0 99.934 99.934" style="enable-background:new 0 0 99.934 99.934;" xml:space="preserve">
<g>
	<g>
		<path d="M87.211,70.471H12.723L49.967,5.963L87.211,70.471z M17.919,67.471h64.096L49.967,11.963L17.919,67.471z"/>
	</g>
	<g>
		<path d="M49.967,3c25.898,0,46.967,21.069,46.967,46.967S75.865,96.934,49.967,96.934S3,75.865,3,49.967S24.069,3,49.967,3
			 M49.967,0C22.371,0,0,22.371,0,49.967s22.371,49.967,49.967,49.967s49.967-22.371,49.967-49.967S77.563,0,49.967,0L49.967,0z"/>
	</g>
	<g>
		<g>
			<path d="M38.483,75.576h3.478v12.211h-2.308V77.759h-2.515L38.483,75.576z"/>
		</g>
		<g>
			<path d="M48.004,75.576h3.478v12.211h-2.308V77.759H46.66L48.004,75.576z"/>
		</g>
		<g>
			<path d="M57.691,79.511h-2.267c0.062-1.317,0.475-2.354,1.241-3.109c0.767-0.755,1.75-1.133,2.951-1.133
				c0.741,0,1.396,0.156,1.963,0.469s1.021,0.764,1.361,1.354c0.34,0.589,0.511,1.188,0.511,1.797c0,0.725-0.207,1.505-0.619,2.341
				s-1.167,1.823-2.263,2.964l-1.37,1.443h4.352v2.15h-8.459v-1.112l3.777-3.852c0.913-0.924,1.521-1.667,1.821-2.229
				c0.302-0.562,0.453-1.069,0.453-1.523c0-0.471-0.156-0.859-0.47-1.166c-0.312-0.308-0.715-0.461-1.207-0.461
				c-0.498,0-0.913,0.186-1.245,0.556C57.891,78.371,57.713,78.875,57.691,79.511z"/>
		</g>
	</g>
	<g>
		<g>
			<path d="M36.861,43.464h8.198v3.076h-5.076v13.443h-3.122V43.464z"/>
		</g>
		<g>
			<path d="M55.318,43.047c2.337,0,4.347,0.846,6.029,2.538c1.682,1.692,2.522,3.755,2.522,6.188c0,2.41-0.829,4.45-2.489,6.12
				c-1.659,1.67-3.673,2.505-6.04,2.505c-2.479,0-4.54-0.857-6.181-2.572s-2.461-3.751-2.461-6.109c0-1.58,0.382-3.032,1.146-4.357
				c0.765-1.325,1.815-2.375,3.152-3.15C52.335,43.435,53.774,43.047,55.318,43.047z M55.284,46.125
				c-1.528,0-2.814,0.531-3.855,1.595c-1.042,1.063-1.562,2.414-1.562,4.055c0,1.826,0.656,3.271,1.967,4.334
				c1.02,0.832,2.188,1.247,3.508,1.247c1.491,0,2.762-0.539,3.811-1.617c1.05-1.078,1.574-2.407,1.574-3.987
				c0-1.572-0.528-2.902-1.585-3.992C58.084,46.67,56.799,46.125,55.284,46.125z"/>
		</g>
	</g>
	<g>
		<polygon points="49.967,23.396 48.397,26.578 44.886,27.088 47.427,29.564 46.827,33.061 49.967,31.41 53.107,33.061 
			52.508,29.564 55.048,27.088 51.537,26.578 49.967,23.396 		"/>
	</g>
</g>
</svg>
